<?xml version="1.0" standalone="no"?>
<!DOCTYPE svg PUBLIC "-//W3C//DTD SVG 20010904//EN"
 "http://www.w3.org/TR/2001/REC-SVG-20010904/DTD/svg10.dtd">
<svg version="1.0" xmlns="http://www.w3.org/2000/svg"
 width="544.000000pt" height="544.000000pt" viewBox="0 0 544.000000 544.000000"
 preserveAspectRatio="xMidYMid meet">
<metadata>
Created by potrace 1.11, written by Peter Selinger 2001-2013
</metadata>
<g transform="translate(0.000000,544.000000) scale(0.100000,-0.100000)"
fill="#000000" stroke="none">
<path d="M286 5333 c39 -38 124 -118 190 -179 65 -62 142 -134 170 -160 28
-27 104 -98 169 -159 65 -60 130 -121 144 -135 82 -77 204 -192 346 -325 88
-82 193 -181 234 -220 41 -38 84 -79 96 -90 12 -11 82 -77 156 -146 74 -70
150 -141 169 -159 30 -28 126 -117 320 -300 26 -25 105 -99 175 -165 71 -66
146 -137 169 -158 185 -173 315 -295 391 -367 81 -77 267 -251 401 -377 28
-26 105 -98 170 -160 66 -61 139 -130 164 -153 76 -71 299 -281 383 -360 43
-41 84 -78 90 -81 13 -8 558 316 642 381 132 102 235 225 289 344 48 106 61
170 61 316 0 190 -17 271 -83 394 -89 164 -203 256 -454 366 -79 34 -171 75
-206 91 -35 16 -65 29 -68 29 -2 0 -32 14 -66 30 -34 17 -65 30 -69 30 -4 0
-41 15 -81 34 -40 19 -109 50 -153 69 -44 20 -174 77 -290 127 -115 51 -228
100 -250 110 -22 10 -150 66 -285 125 -135 59 -263 115 -285 125 -38 18 -192
85 -265 117 -19 8 -48 21 -65 28 -16 8 -109 48 -205 91 -96 42 -193 84 -215
94 -22 9 -78 34 -125 55 -47 20 -109 48 -138 61 -29 13 -54 24 -57 24 -2 0
-32 13 -67 29 -35 16 -209 93 -388 171 -179 79 -350 154 -380 167 -30 14 -68
30 -85 38 -62 27 -524 229 -620 271 l-100 44 71 -67z"/>
<path d="M2251 2247 c-57 -62 -234 -258 -346 -382 -44 -49 -89 -99 -100 -110
-11 -12 -49 -54 -85 -94 -36 -41 -78 -88 -95 -106 -16 -17 -64 -69 -106 -116
-269 -299 -375 -415 -384 -425 -5 -6 -44 -48 -85 -94 -41 -46 -80 -88 -85 -94
-6 -6 -55 -60 -110 -121 -55 -60 -116 -128 -136 -150 -20 -22 -47 -52 -60 -66
-26 -29 -115 -128 -278 -309 -58 -63 -107 -117 -110 -120 -3 -3 -17 -18 -30
-33 l-25 -28 40 15 c21 7 53 19 69 26 17 7 44 18 60 25 27 12 168 69 980 397
149 60 317 129 375 152 58 24 245 100 417 170 172 69 325 131 340 138 15 6 33
12 38 14 6 1 53 20 105 42 52 22 201 83 330 135 129 52 287 116 350 142 63 26
264 107 445 180 435 176 404 162 380 170 -11 4 -29 10 -40 15 -26 10 -129 49
-380 143 -110 41 -267 101 -350 132 -82 32 -184 70 -225 85 -41 15 -214 80
-385 145 -170 65 -345 130 -388 146 l-78 28 -48 -52z"/>
</g>
</svg>
